<?xml version="1.0" encoding="UTF-8"?>
<svg id="Layer_2" data-name="Layer 2" xmlns="http://www.w3.org/2000/svg" viewBox="0 0 419.29 125.45">
  <defs>
    <style>
      .cls-1 {
        fill: #fae4c5;
      }
    </style>
  </defs>
  <g id="Layer_1-2" data-name="Layer 1">
    <path class="cls-1" d="M77.58,108.42c-.44,6.12-26.37,11.44-28.67,17.03l.24-1.3c.55-4.74.43-9.47-2.44-11.53l-30.03-.48c-3.88-.06-9.26-3.51-11.42-6.59-7.53-10.75-4.25-24.43,7.61-31.46C3.9,68.79.18,60.25,0,50.38c-.23-12.84,6.25-23.96,18.59-28.9,3.96-1.58,8.09-3.61,14.22-3.65l44.69-.02h.1s-8.19,24.03-8.19,24.03c4.39,12.41,1.97,27.27-9.9,33.93-16.54,9.27,1.63-7.27-.1-.09-.4,1.67-31.74,12.62-29.72,12.64l29.56.26c10.02.09,19.09,9.16,18.33,19.84ZM35.11,35.82c-8.17,1.32-13.21,9.32-11.31,16.64,1.7,6.52,8.47,11.93,15.62,10.56s12.32-8.18,11.25-15.7c-1-6.99-7.27-12.84-15.56-11.5Z"/>
    <path class="cls-1" d="M78.91,67.26V30.04h22.7v37.22c0,5.97,1,10.3,3.01,12.97,2.01,2.68,5.38,4.01,10.12,4.01s7.88-1.13,9.73-3.4c1.85-2.26,2.93-5.45,3.24-9.57v-39.16l22.86,9.16v58.26h-.1l-22.29-6.49c-4.22,5.05-10.09,7.72-17.61,8.03h-2.32c-10.71,0-18.28-2.78-22.7-8.34-4.43-5.56-6.64-14.05-6.64-25.48Z"/>
    <path class="cls-1" d="M155.05,75.45h22.7c0,.21.03.52.08.93.05.41.31,1.16.77,2.24.46,1.08,1.11,2.03,1.93,2.86.82.82,2.16,1.6,4.02,2.32,1.85.72,4.07,1.13,6.64,1.24h.46c6.49,0,9.83-2.06,10.04-6.18,0-1.85-1.47-3.37-4.4-4.56-2.93-1.18-6.54-2.24-10.81-3.17-4.27-.93-8.6-2.01-12.97-3.24-4.38-1.24-8.16-3.22-11.35-5.95-3.19-2.73-5-6.1-5.41-10.12-.1-.62-.15-1.18-.15-1.7,0-5.97,3.06-11.07,9.19-15.29,6.12-4.22,13.92-6.33,23.4-6.33,6.38,0,11.92.77,16.6,2.32,4.68,1.54,8.13,3.4,10.35,5.56,2.21,2.16,3.96,4.35,5.25,6.56,1.29,2.21,2.03,4.09,2.24,5.64l.31,2.32h-22.55c0-.2-.05-.44-.15-.69-.1-.26-.39-.75-.85-1.47-.46-.72-1.08-1.34-1.85-1.85-.77-.51-1.96-1-3.55-1.47-1.6-.46-3.42-.7-5.48-.7-3.19,0-5.74.49-7.65,1.47-1.91.98-2.86,2.14-2.86,3.47v.62c.31,1.96,2.86,3.66,7.65,5.1,4.79,1.44,9.99,2.65,15.6,3.63,5.61.98,10.84,3.01,15.68,6.1,4.84,3.09,7.41,7.1,7.72,12.05v1.54c0,6.49-3.12,11.84-9.34,16.06-6.23,4.22-15.27,6.33-27.1,6.33-6.08,0-11.43-.88-16.06-2.63-4.63-1.75-8.03-3.89-10.19-6.41-2.16-2.52-3.91-5.04-5.25-7.57-1.34-2.52-2.11-4.66-2.32-6.41l-.31-2.63Z"/>
    <path class="cls-1" d="M229.68,13.28c0-3.71,1.29-6.85,3.86-9.42,2.57-2.57,5.61-3.86,9.11-3.86,3.71,0,6.85,1.29,9.42,3.86,2.57,2.58,3.86,5.71,3.86,9.42,0,3.5-1.29,6.51-3.86,9.03-2.57,2.52-5.71,3.78-9.42,3.78-3.5,0-6.54-1.26-9.11-3.78-2.58-2.52-3.86-5.53-3.86-9.03Z"/>
    <polygon class="cls-1" points="254.24 40.42 254.24 101 231.38 101 231.38 31.51 254.24 40.42"/>
    <path class="cls-1" d="M260,64.16c0-10.19,3.58-18.79,10.73-25.79,7.15-7,17.01-10.5,29.57-10.5s22.42,3.5,29.58,10.5c7.15,7,10.73,15.6,10.73,25.79s-3.55,18.89-10.66,25.79c-7.21,7-17.09,10.5-29.65,10.5s-22.42-3.5-29.57-10.5c-7.16-7-10.73-15.6-10.73-25.79ZM285.1,79.43c3.58,3.56,8.37,6.13,14.89,6.13,5.66,0,12.13-3.44,15.09-7.12,3.41-4.24,5.37-9.04,5.09-14.28-.39-7.34-2.96-10.99-5.84-14.29-2.88-3.29-8.27-6.09-14.03-6.09-11.43,0-21.31,8.13-21.62,20.38-.13,5.28,2.34,11.22,6.42,15.27Z"/>
    <path class="cls-1" d="M344.5,31.33l21.66,8.65c4.63-6.69,11.53-10.09,20.69-10.19h1.08c5.97,0,11.12.85,15.44,2.55,4.32,1.7,7.62,4.3,9.88,7.8,2.26,3.5,3.84,7.26,4.71,11.27.87,4.02,1.31,8.7,1.31,14.05v35.37h-22.7v-35.37c0-11.84-4.12-17.81-12.36-17.92h-.46c-5.97,0-10.25,2.08-12.82,6.26-2.57,4.17-3.86,9.6-3.86,16.29v21.37l-22.7,9.1V31.33h.11Z"/>
  </g>
</svg>